<?xml version="1.0" encoding="UTF-8" standalone="no"?>
<!-- Generator: Adobe Illustrator 20.1.0, SVG Export Plug-In . SVG Version: 6.00 Build 0)  -->

<svg
   version="1.1"
   id="Layer_1"
   x="0px"
   y="0px"
   viewBox="0 0 141.7 141.7"
   style="enable-background:new 0 0 141.7 141.7;"
   xml:space="preserve"
   sodipodi:docname="LOVJ.svg"
   inkscape:version="1.3.2 (091e20e, 2023-11-25, custom)"
   inkscape:export-filename="LOVJ.png"
   inkscape:export-xdpi="177.62776"
   inkscape:export-ydpi="177.62776"
   xmlns:inkscape="http://www.inkscape.org/namespaces/inkscape"
   xmlns:sodipodi="http://sodipodi.sourceforge.net/DTD/sodipodi-0.dtd"
   xmlns:xlink="http://www.w3.org/1999/xlink"
   xmlns="http://www.w3.org/2000/svg"
   xmlns:svg="http://www.w3.org/2000/svg"><defs
   id="defs12"><pattern
     inkscape:collect="always"
     xlink:href="#Lizard scales"
     preserveAspectRatio="xMidYMid"
     id="pattern34"
     patternTransform="matrix(1.71,0,0,1.71,517.61634,430.02323)"
     x="0"
     y="0" /><pattern
     patternUnits="userSpaceOnUse"
     preserveAspectRatio="xMidYMid"
     width="74.53426"
     height="42.717944"
     patternTransform="translate(517.61634,430.02323)"
     style="fill:#000000"
     id="Lizard scales"
     inkscape:collect="always"
     inkscape:isstock="true"
     inkscape:label="Lizard scales"><path
       id="path48318"
       style="color:#000000;mix-blend-mode:normal;fill-opacity:1;stroke-width:1.99404;stroke-linecap:round;paint-order:markers fill stroke"
       d="M 17.457713,0 C 16.094967,2.2617524 14.577487,4.6363465 12.960643,6.8790841 8.0534551,13.685783 1.4757921,18.073175 0,19.034608 v 4.718472 l 1.0279937,-0.633789 c 0,0 5.3450457,-3.265259 10.5832063,-8.618158 1.723729,3.350842 5.302035,9.970851 9.515792,15.815648 0.58012,0.804752 1.188737,1.582719 1.811868,2.331961 -0.715767,1.43904 -2.733317,5.519705 -5.481147,10.069202 h 4.562344 c 1.646211,-2.83172 2.902715,-5.330075 3.738973,-6.962468 3.083603,3.134895 6.005253,5.51935 8.026885,6.962468 h 6.962457 c 2.021593,-1.443118 4.944756,-3.827573 8.028408,-6.962468 0.836258,1.632393 2.092724,4.130748 3.738973,6.962468 h 4.560756 C 54.328717,38.168447 52.311205,34.087782 51.5954,32.648742 c 0.623169,-0.749242 1.231711,-1.527209 1.811868,-2.331961 4.21372,-5.844797 7.792063,-12.464806 9.51583,-15.815648 5.238123,5.352899 10.58468,8.618158 10.58468,8.618158 L 74.53426,23.75308 V 19.034608 C 73.058468,18.073175 66.480805,13.685783 61.573655,6.8790841 59.956811,4.6363465 58.439293,2.2617524 57.076509,0 h -4.560756 c 1.675729,2.8888479 3.68965,6.1304882 5.879887,9.1685896 0.550299,0.763268 1.125392,1.5017994 1.714847,2.2151884 -1.17857,2.358221 -5.15966,10.092204 -9.882709,16.643524 C 45.320882,34.833562 38.743521,39.219428 37.267124,40.181303 35.790728,39.219428 29.213367,34.833562 24.30652,28.027302 19.583471,21.475982 15.602381,13.741999 14.423773,11.383778 15.013228,10.670389 15.588359,9.9318576 16.13862,9.1685896 18.328894,6.1304882 20.344328,2.8888479 22.020057,0 Z m 16.328202,0 c 1.479231,1.0630413 2.453216,1.6678375 2.453216,1.6678375 l 1.027993,0.6353121 1.027994,-0.6353121 c 0,0 0.973984,-0.6047962 2.453254,-1.6678375 h -3.481248 z"
       sodipodi:nodetypes="csccccscccccccccccccccsccscscsccccccccccc" /></pattern><linearGradient
     id="swatch30"
     inkscape:swatch="solid"><stop
       style="stop-color:#000000;stop-opacity:1;"
       offset="0"
       id="stop31" /></linearGradient><linearGradient
     id="linearGradient29"
     inkscape:collect="always"><stop
       style="stop-color:#ffffff;stop-opacity:1;"
       offset="0"
       id="stop29" /><stop
       style="stop-color:#000000;stop-opacity:1;"
       offset="1"
       id="stop30" /></linearGradient><linearGradient
     id="linearGradient27"
     inkscape:collect="always"><stop
       style="stop-color:#27aae1;stop-opacity:1;"
       offset="0"
       id="stop28" /><stop
       style="stop-color:#27aae1;stop-opacity:1;"
       offset="0.49522102"
       id="stop40" /><stop
       style="stop-color:#e74a99;stop-opacity:1;"
       offset="0.5"
       id="stop41" /><stop
       style="stop-color:#e74a99;stop-opacity:1;"
       offset="1"
       id="stop27" /></linearGradient><linearGradient
     inkscape:collect="always"
     xlink:href="#linearGradient27"
     id="linearGradient28"
     x1="31.5"
     y1="75.941536"
     x2="109.4"
     y2="75.941536"
     gradientUnits="userSpaceOnUse"
     spreadMethod="pad"
     gradientTransform="matrix(0.65639884,-0.82578408,0.82578408,0.65639884,-38.656362,84.788831)" /><radialGradient
     inkscape:collect="always"
     xlink:href="#linearGradient29"
     id="radialGradient30"
     cx="70.400002"
     cy="76.099998"
     fx="70.400002"
     fy="76.099998"
     r="47.400002"
     gradientUnits="userSpaceOnUse" /></defs><sodipodi:namedview
   id="namedview12"
   pagecolor="#ffffff"
   bordercolor="#000000"
   borderopacity="0.25"
   inkscape:showpageshadow="2"
   inkscape:pageopacity="0.0"
   inkscape:pagecheckerboard="0"
   inkscape:deskcolor="#d1d1d1"
   inkscape:zoom="4.4297533"
   inkscape:cx="45.82648"
   inkscape:cy="86.912289"
   inkscape:window-width="1920"
   inkscape:window-height="976"
   inkscape:window-x="-8"
   inkscape:window-y="-8"
   inkscape:window-maximized="1"
   inkscape:current-layer="g13" />
<style
   type="text/css"
   id="style1">
	.st0{fill:#414042;}
	.st1{fill:#939598;}
	.st2{fill:#FFFFFF;}
	.st3{fill:none;stroke:#FFFFFF;stroke-width:1.7417;stroke-linecap:round;stroke-miterlimit:10;}
</style>
<g
   id="g12"
   transform="matrix(1.3095397,0,0,1.3095397,-6.9646442,-38.382928)">
	<g
   id="g2"
   transform="matrix(1.1028493,0,0,1.1028493,-17.871418,-0.30746515)">
		<g
   id="g1"
   style="fill:#1e1e1e;fill-opacity:1;stroke:#000000;stroke-opacity:1">
			<circle
   class="st0"
   cx="70.400002"
   cy="76.099998"
   r="47.400002"
   id="circle1"
   style="fill:#1e1e1e;fill-opacity:1;stroke:#000000;stroke-opacity:1" />
		</g>
		<path
   d="m 97.72998,45.778444 c -3.574169,0.258306 -7.249978,-0.372699 -10.451484,-2.108982 -3.349723,-1.719351 -6.026109,-4.116259 -8.029157,-7.19074 -5.242686,-1.202711 -10.580658,-1.268373 -15.865702,-0.21393 -2.000959,2.856368 -4.793825,5.352771 -8.215557,6.945042 -3.42173,1.59227 -7.11025,2.16395 -10.587023,1.960663 -4.173419,3.5551 -7.603631,7.700959 -10.01114,12.255482 1.065038,3.406907 1.192065,7.146242 0.330264,10.773349 -0.861801,3.627107 -2.663727,6.91119 -5.225796,9.456296 0.06562,5.172817 1.202636,10.5235 3.343306,15.459176 3.233268,1.357272 6.254793,3.48951 8.685558,6.364955 2.299485,3.040605 3.660959,6.413635 4.067484,9.970865 4.277139,3.26507 9.062459,5.72128 14.091283,7.0235 3.025778,-1.77224 6.515264,-2.77164 10.502333,-2.70175 3.756273,0.0212 7.417256,1.17942 10.387964,2.867 5.102949,-1.33393 9.890408,-3.45765 14.39414,-6.75021 0.582301,-3.44501 1.988276,-6.90907 4.351312,-9.88189 2.363035,-2.972833 5.354945,-5.041519 8.810535,-6.337352 2.24236,-4.685805 3.51071,-10.011067 3.64202,-15.431617 -2.33125,-2.661588 -4.12045,-5.835583 -4.92292,-9.572804 -0.80248,-3.737219 -0.46791,-7.379151 0.64161,-10.809338 -1.16032,-2.269862 -2.55143,-4.588426 -4.22205,-6.724893 -1.61981,-1.691811 -3.718145,-3.629247 -5.71698,-5.352822 z"
   id="path1"
   style="fill:url(#linearGradient28);fill-opacity:1;fill-rule:nonzero;stroke:none;stroke-width:7.30415;stroke-dasharray:none;stroke-opacity:1" />
		
			
		<g
   id="g13"
   transform="matrix(0.69638422,0,0,0.69638422,19.78665,24.816315)"
   style="stroke:none;stroke-width:1.2866;stroke-dasharray:none;stroke-opacity:1"><g
     id="g9"
     transform="translate(-6.096411,0.4625877)"
     style="stroke:#000000;stroke-width:1.2866;stroke-dasharray:none;stroke-opacity:1">
	
		
	<g
   id="g8"
   style="stroke:#000000;stroke-width:1.2866;stroke-dasharray:none;stroke-opacity:1">
		<path
   fill="#ffffff"
   d="m 73.043,52.8 c 0,0 -6.48,-14.187 -19.968,-10.958 -13.486,3.23 -41.652,30.792 17.853,65.083 H 70.88 C 130.384,72.634 102.22,45.073 88.733,41.842 75.245,38.613 68.766,52.8 68.766,52.8 Z"
   id="path6"
   style="stroke:#000000;stroke-width:1.2866;stroke-dasharray:none;stroke-opacity:1"
   inkscape:label="path6" />
	</g>
</g><text
     xml:space="preserve"
     style="font-size:84.8467px;fill:#ffffff;fill-opacity:1;stroke:#000000;stroke-width:0.994297;stroke-dasharray:none;stroke-opacity:1"
     x="97.604721"
     y="104.66839"
     id="text1"><tspan
       sodipodi:role="line"
       id="tspan1"
       style="font-style:normal;font-variant:normal;font-weight:normal;font-stretch:normal;font-size:84.8467px;font-family:Calibri;-inkscape-font-specification:Calibri;stroke:#000000;stroke-width:0.994297;stroke-dasharray:none;stroke-opacity:1"
       x="97.604721"
       y="104.66839">J</tspan></text></g>
	<text
   xml:space="preserve"
   style="fill:#646464;fill-opacity:1;stroke:url(#pattern34);stroke-opacity:1"
   x="79.57"
   y="88.10833"
   id="text30"><tspan
     sodipodi:role="line"
     id="tspan30"
     x="79.57"
     y="88.10833"
     style="stroke:url(#pattern34)" /></text></g>
	
</g>
</svg>
